<?xml version="1.0" encoding="iso-8859-1"?>
<!-- Generator: Adobe Illustrator 19.0.0, SVG Export Plug-In . SVG Version: 6.00 Build 0)  -->
<svg version="1.1" id="Layer_1" xmlns="http://www.w3.org/2000/svg" xmlns:xlink="http://www.w3.org/1999/xlink" x="0px" y="0px"
	 viewBox="0 0 504 504" style="enable-background:new 0 0 504 504;" xml:space="preserve">
<g>
	<g>
		<path d="M377.6,0H126C56.8,0,0,56.8,0,126.4V378c0,69.2,56.8,126,126,126h251.6c69.6,0,126.4-56.8,126.4-126.4V126.4
			C504,56.8,447.2,0,377.6,0z M324,409.2c-11.2,0-72.8-1.6-88.8-1.6c-15.6,0-98-25.2-98-114.8c0-16,0-32,0-48
			c0-14.8-0.4-29.6-0.4-44.4c0-4.4,0-8.4,0-12.8c0-22.4-2-48,5.2-69.6c5.6-16.4,18.8-22.4,35.2-22.4c39.6,0,42,40.4,42.4,80.4H276
			h58c18,0,31.6,18.4,31.6,46c0,27.6-29.2,34-44.4,34H218.4c-0.4,16-1.2,30.8-1.2,39.2c0,17.6,6.8,36.8,50.4,36.8h61.2
			c15.2,0,38,10.8,38,42.8C367.2,406.8,335.2,409.2,324,409.2z"/>
	</g>
</g>
<g>
</g>
<g>
</g>
<g>
</g>
<g>
</g>
<g>
</g>
<g>
</g>
<g>
</g>
<g>
</g>
<g>
</g>
<g>
</g>
<g>
</g>
<g>
</g>
<g>
</g>
<g>
</g>
<g>
</g>
</svg>
